{
	"patcher" : 	{
		"fileversion" : 1,
		"appversion" : 		{
			"major" : 7,
			"minor" : 3,
			"revision" : 1,
			"architecture" : "x86",
			"modernui" : 1
		}
,
		"rect" : [ 34.0, 79.0, 1212.0, 619.0 ],
		"bglocked" : 0,
		"openinpresentation" : 0,
		"default_fontsize" : 12.0,
		"default_fontface" : 0,
		"default_fontname" : "Arial",
		"gridonopen" : 1,
		"gridsize" : [ 15.0, 15.0 ],
		"gridsnaponopen" : 1,
		"objectsnaponopen" : 1,
		"statusbarvisible" : 2,
		"toolbarvisible" : 1,
		"lefttoolbarpinned" : 0,
		"toptoolbarpinned" : 0,
		"righttoolbarpinned" : 0,
		"bottomtoolbarpinned" : 0,
		"toolbars_unpinned_last_save" : 0,
		"tallnewobj" : 0,
		"boxanimatetime" : 200,
		"enablehscroll" : 1,
		"enablevscroll" : 1,
		"devicewidth" : 0.0,
		"description" : "",
		"digest" : "",
		"tags" : "",
		"style" : "",
		"subpatcher_template" : "",
		"boxes" : [ 			{
				"box" : 				{
					"id" : "obj-5",
					"maxclass" : "newobj",
					"numinlets" : 1,
					"numoutlets" : 2,
					"outlettype" : [ "bang", "int" ],
					"patching_rect" : [ 473.0, 308.0, 30.0, 22.0 ],
					"style" : "",
					"text" : "t b i"
				}

			}
, 			{
				"box" : 				{
					"id" : "obj-3",
					"maxclass" : "newobj",
					"numinlets" : 2,
					"numoutlets" : 1,
					"outlettype" : [ "float" ],
					"patching_rect" : [ 472.0, 340.0, 31.0, 22.0 ],
					"style" : "",
					"text" : "+ 0."
				}

			}
, 			{
				"box" : 				{
					"id" : "obj-55",
					"maxclass" : "newobj",
					"numinlets" : 5,
					"numoutlets" : 2,
					"outlettype" : [ "signal", "signal" ],
					"patcher" : 					{
						"fileversion" : 1,
						"appversion" : 						{
							"major" : 7,
							"minor" : 3,
							"revision" : 1,
							"architecture" : "x86",
							"modernui" : 1
						}
,
						"rect" : [ 34.0, 79.0, 1212.0, 619.0 ],
						"bglocked" : 0,
						"openinpresentation" : 0,
						"default_fontsize" : 12.0,
						"default_fontface" : 0,
						"default_fontname" : "Arial",
						"gridonopen" : 1,
						"gridsize" : [ 15.0, 15.0 ],
						"gridsnaponopen" : 1,
						"objectsnaponopen" : 1,
						"statusbarvisible" : 2,
						"toolbarvisible" : 1,
						"lefttoolbarpinned" : 0,
						"toptoolbarpinned" : 0,
						"righttoolbarpinned" : 0,
						"bottomtoolbarpinned" : 0,
						"toolbars_unpinned_last_save" : 0,
						"tallnewobj" : 0,
						"boxanimatetime" : 200,
						"enablehscroll" : 1,
						"enablevscroll" : 1,
						"devicewidth" : 0.0,
						"description" : "",
						"digest" : "",
						"tags" : "",
						"style" : "",
						"subpatcher_template" : "",
						"boxes" : [ 							{
								"box" : 								{
									"id" : "obj-4",
									"maxclass" : "newobj",
									"numinlets" : 1,
									"numoutlets" : 1,
									"outlettype" : [ "signal" ],
									"patching_rect" : [ 116.0, 435.0, 50.0, 22.0 ],
									"style" : "",
									"text" : "sig~ -1."
								}

							}
, 							{
								"box" : 								{
									"id" : "obj-2",
									"maxclass" : "newobj",
									"numinlets" : 3,
									"numoutlets" : 1,
									"outlettype" : [ "signal" ],
									"patching_rect" : [ 14.0, 464.0, 121.0, 22.0 ],
									"style" : "",
									"text" : "selector~ 2"
								}

							}
, 							{
								"box" : 								{
									"id" : "obj-1",
									"maxclass" : "newobj",
									"numinlets" : 2,
									"numoutlets" : 1,
									"outlettype" : [ "signal" ],
									"patching_rect" : [ 14.0, 409.0, 42.0, 22.0 ],
									"style" : "",
									"text" : ">=~ 0"
								}

							}
, 							{
								"box" : 								{
									"id" : "obj-46",
									"maxclass" : "newobj",
									"numinlets" : 2,
									"numoutlets" : 1,
									"outlettype" : [ "signal" ],
									"patching_rect" : [ 65.0, 409.0, 75.0, 22.0 ],
									"style" : "",
									"text" : "%~ 999999."
								}

							}
, 							{
								"box" : 								{
									"id" : "obj-3",
									"maxclass" : "newobj",
									"numinlets" : 2,
									"numoutlets" : 1,
									"outlettype" : [ "signal" ],
									"patching_rect" : [ 65.0, 352.0, 38.0, 22.0 ],
									"style" : "",
									"text" : "+~ 0."
								}

							}
, 							{
								"box" : 								{
									"id" : "obj-25",
									"maxclass" : "message",
									"numinlets" : 2,
									"numoutlets" : 1,
									"outlettype" : [ "" ],
									"patching_rect" : [ 290.5, 195.0, 29.5, 22.0 ],
									"style" : "",
									"text" : "1"
								}

							}
, 							{
								"box" : 								{
									"id" : "obj-26",
									"maxclass" : "message",
									"numinlets" : 2,
									"numoutlets" : 1,
									"outlettype" : [ "" ],
									"patching_rect" : [ 259.0, 195.0, 29.5, 22.0 ],
									"style" : "",
									"text" : "0"
								}

							}
, 							{
								"box" : 								{
									"id" : "obj-24",
									"maxclass" : "message",
									"numinlets" : 2,
									"numoutlets" : 1,
									"outlettype" : [ "" ],
									"patching_rect" : [ 211.5, 199.0, 29.5, 22.0 ],
									"style" : "",
									"text" : "1"
								}

							}
, 							{
								"box" : 								{
									"id" : "obj-23",
									"maxclass" : "message",
									"numinlets" : 2,
									"numoutlets" : 1,
									"outlettype" : [ "" ],
									"patching_rect" : [ 180.0, 199.0, 29.5, 22.0 ],
									"style" : "",
									"text" : "0"
								}

							}
, 							{
								"box" : 								{
									"id" : "obj-21",
									"maxclass" : "newobj",
									"numinlets" : 2,
									"numoutlets" : 1,
									"outlettype" : [ "signal" ],
									"patching_rect" : [ 174.0, 261.0, 36.0, 22.0 ],
									"style" : "",
									"text" : "*~ 1."
								}

							}
, 							{
								"box" : 								{
									"id" : "obj-20",
									"maxclass" : "newobj",
									"numinlets" : 2,
									"numoutlets" : 1,
									"outlettype" : [ "signal" ],
									"patching_rect" : [ 219.5, 261.0, 36.0, 22.0 ],
									"style" : "",
									"text" : "*~ 1."
								}

							}
, 							{
								"box" : 								{
									"id" : "obj-19",
									"maxclass" : "newobj",
									"numinlets" : 2,
									"numoutlets" : 1,
									"outlettype" : [ "signal" ],
									"patching_rect" : [ 130.0, 180.0, 35.0, 22.0 ],
									"style" : "",
									"text" : "-~ 1."
								}

							}
, 							{
								"box" : 								{
									"id" : "obj-12",
									"maxclass" : "newobj",
									"numinlets" : 2,
									"numoutlets" : 1,
									"outlettype" : [ "signal" ],
									"patching_rect" : [ 209.0, 409.0, 29.5, 22.0 ],
									"style" : "",
									"text" : "+~"
								}

							}
, 							{
								"box" : 								{
									"id" : "obj-9",
									"maxclass" : "newobj",
									"numinlets" : 1,
									"numoutlets" : 3,
									"outlettype" : [ "bang", "int", "bang" ],
									"patching_rect" : [ 465.0, 111.0, 138.0, 22.0 ],
									"style" : "",
									"text" : "t b i b"
								}

							}
, 							{
								"box" : 								{
									"id" : "obj-88",
									"maxclass" : "newobj",
									"numinlets" : 1,
									"numoutlets" : 3,
									"outlettype" : [ "bang", "int", "bang" ],
									"patching_rect" : [ 177.0, 111.0, 104.0, 22.0 ],
									"style" : "",
									"text" : "t b i b"
								}

							}
, 							{
								"box" : 								{
									"id" : "obj-85",
									"maxclass" : "newobj",
									"numinlets" : 1,
									"numoutlets" : 1,
									"outlettype" : [ "signal" ],
									"patching_rect" : [ 219.5, 149.0, 46.0, 22.0 ],
									"style" : "",
									"text" : "sig~ 0."
								}

							}
, 							{
								"box" : 								{
									"id" : "obj-71",
									"maxclass" : "newobj",
									"numinlets" : 2,
									"numoutlets" : 1,
									"outlettype" : [ "signal" ],
									"patching_rect" : [ 65.0, 320.0, 35.0, 22.0 ],
									"style" : "",
									"text" : "-~ 1."
								}

							}
, 							{
								"box" : 								{
									"id" : "obj-72",
									"maxclass" : "newobj",
									"numinlets" : 2,
									"numoutlets" : 1,
									"outlettype" : [ "signal" ],
									"patching_rect" : [ 65.0, 70.0, 38.0, 22.0 ],
									"style" : "",
									"text" : "+~ 1."
								}

							}
, 							{
								"box" : 								{
									"id" : "obj-73",
									"maxclass" : "newobj",
									"numinlets" : 2,
									"numoutlets" : 1,
									"outlettype" : [ "signal" ],
									"patching_rect" : [ 65.0, 291.0, 84.0, 22.0 ],
									"style" : "",
									"text" : "*~ 1."
								}

							}
, 							{
								"box" : 								{
									"id" : "obj-65",
									"maxclass" : "newobj",
									"numinlets" : 2,
									"numoutlets" : 1,
									"outlettype" : [ "signal" ],
									"patching_rect" : [ 130.0, 261.0, 35.0, 22.0 ],
									"style" : "",
									"text" : "<~ 1"
								}

							}
, 							{
								"box" : 								{
									"id" : "obj-58",
									"maxclass" : "newobj",
									"numinlets" : 2,
									"numoutlets" : 1,
									"outlettype" : [ "signal" ],
									"patching_rect" : [ 130.0, 149.0, 66.0, 22.0 ],
									"style" : "",
									"text" : "+=~"
								}

							}
, 							{
								"box" : 								{
									"id" : "obj-57",
									"maxclass" : "newobj",
									"numinlets" : 2,
									"numoutlets" : 1,
									"outlettype" : [ "signal" ],
									"patching_rect" : [ 130.0, 96.0, 42.0, 22.0 ],
									"style" : "",
									"text" : "==~ 0"
								}

							}
, 							{
								"box" : 								{
									"comment" : "",
									"id" : "obj-48",
									"maxclass" : "inlet",
									"numinlets" : 0,
									"numoutlets" : 1,
									"outlettype" : [ "signal" ],
									"patching_rect" : [ 119.0, 10.0, 30.0, 30.0 ],
									"style" : ""
								}

							}
, 							{
								"box" : 								{
									"comment" : "",
									"id" : "obj-49",
									"maxclass" : "inlet",
									"numinlets" : 0,
									"numoutlets" : 1,
									"outlettype" : [ "float" ],
									"patching_rect" : [ 227.5, 10.0, 30.0, 30.0 ],
									"style" : ""
								}

							}
, 							{
								"box" : 								{
									"comment" : "",
									"id" : "obj-50",
									"maxclass" : "inlet",
									"numinlets" : 0,
									"numoutlets" : 1,
									"outlettype" : [ "int" ],
									"patching_rect" : [ 157.0, 10.0, 30.0, 30.0 ],
									"style" : ""
								}

							}
, 							{
								"box" : 								{
									"comment" : "",
									"id" : "obj-51",
									"maxclass" : "inlet",
									"numinlets" : 0,
									"numoutlets" : 1,
									"outlettype" : [ "" ],
									"patching_rect" : [ 189.0, 10.0, 30.0, 30.0 ],
									"style" : ""
								}

							}
, 							{
								"box" : 								{
									"comment" : "",
									"id" : "obj-52",
									"maxclass" : "inlet",
									"numinlets" : 0,
									"numoutlets" : 1,
									"outlettype" : [ "" ],
									"patching_rect" : [ 465.0, 10.0, 30.0, 30.0 ],
									"style" : ""
								}

							}
, 							{
								"box" : 								{
									"comment" : "",
									"id" : "obj-53",
									"maxclass" : "outlet",
									"numinlets" : 1,
									"numoutlets" : 0,
									"patching_rect" : [ 14.0, 501.0, 30.0, 30.0 ],
									"style" : ""
								}

							}
, 							{
								"box" : 								{
									"comment" : "",
									"id" : "obj-54",
									"maxclass" : "outlet",
									"numinlets" : 1,
									"numoutlets" : 0,
									"patching_rect" : [ 209.0, 491.0, 30.0, 30.0 ],
									"style" : ""
								}

							}
 ],
						"lines" : [ 							{
								"patchline" : 								{
									"destination" : [ "obj-2", 0 ],
									"disabled" : 0,
									"hidden" : 0,
									"source" : [ "obj-1", 0 ]
								}

							}
, 							{
								"patchline" : 								{
									"destination" : [ "obj-54", 0 ],
									"disabled" : 0,
									"hidden" : 0,
									"source" : [ "obj-12", 0 ]
								}

							}
, 							{
								"patchline" : 								{
									"destination" : [ "obj-21", 0 ],
									"disabled" : 0,
									"hidden" : 0,
									"source" : [ "obj-19", 0 ]
								}

							}
, 							{
								"patchline" : 								{
									"destination" : [ "obj-65", 0 ],
									"disabled" : 0,
									"hidden" : 0,
									"source" : [ "obj-19", 0 ]
								}

							}
, 							{
								"patchline" : 								{
									"destination" : [ "obj-53", 0 ],
									"disabled" : 0,
									"hidden" : 0,
									"source" : [ "obj-2", 0 ]
								}

							}
, 							{
								"patchline" : 								{
									"destination" : [ "obj-12", 1 ],
									"disabled" : 0,
									"hidden" : 0,
									"source" : [ "obj-20", 0 ]
								}

							}
, 							{
								"patchline" : 								{
									"destination" : [ "obj-12", 0 ],
									"disabled" : 0,
									"hidden" : 0,
									"source" : [ "obj-21", 0 ]
								}

							}
, 							{
								"patchline" : 								{
									"destination" : [ "obj-21", 1 ],
									"disabled" : 0,
									"hidden" : 0,
									"source" : [ "obj-23", 0 ]
								}

							}
, 							{
								"patchline" : 								{
									"destination" : [ "obj-21", 1 ],
									"disabled" : 0,
									"hidden" : 0,
									"source" : [ "obj-24", 0 ]
								}

							}
, 							{
								"patchline" : 								{
									"destination" : [ "obj-20", 1 ],
									"disabled" : 0,
									"hidden" : 0,
									"source" : [ "obj-25", 0 ]
								}

							}
, 							{
								"patchline" : 								{
									"destination" : [ "obj-65", 1 ],
									"disabled" : 0,
									"hidden" : 0,
									"source" : [ "obj-25", 0 ]
								}

							}
, 							{
								"patchline" : 								{
									"destination" : [ "obj-20", 1 ],
									"disabled" : 0,
									"hidden" : 0,
									"source" : [ "obj-26", 0 ]
								}

							}
, 							{
								"patchline" : 								{
									"destination" : [ "obj-1", 0 ],
									"disabled" : 0,
									"hidden" : 0,
									"source" : [ "obj-3", 0 ]
								}

							}
, 							{
								"patchline" : 								{
									"destination" : [ "obj-46", 0 ],
									"disabled" : 0,
									"hidden" : 0,
									"source" : [ "obj-3", 0 ]
								}

							}
, 							{
								"patchline" : 								{
									"destination" : [ "obj-2", 2 ],
									"disabled" : 0,
									"hidden" : 0,
									"source" : [ "obj-4", 0 ]
								}

							}
, 							{
								"patchline" : 								{
									"destination" : [ "obj-2", 1 ],
									"disabled" : 0,
									"hidden" : 0,
									"source" : [ "obj-46", 0 ]
								}

							}
, 							{
								"patchline" : 								{
									"destination" : [ "obj-57", 0 ],
									"disabled" : 0,
									"hidden" : 0,
									"source" : [ "obj-48", 0 ]
								}

							}
, 							{
								"patchline" : 								{
									"destination" : [ "obj-72", 0 ],
									"disabled" : 0,
									"hidden" : 0,
									"source" : [ "obj-48", 0 ]
								}

							}
, 							{
								"patchline" : 								{
									"destination" : [ "obj-3", 1 ],
									"disabled" : 0,
									"hidden" : 0,
									"source" : [ "obj-49", 0 ]
								}

							}
, 							{
								"patchline" : 								{
									"destination" : [ "obj-46", 1 ],
									"disabled" : 0,
									"hidden" : 0,
									"source" : [ "obj-50", 0 ]
								}

							}
, 							{
								"patchline" : 								{
									"destination" : [ "obj-88", 0 ],
									"disabled" : 0,
									"hidden" : 0,
									"source" : [ "obj-51", 0 ]
								}

							}
, 							{
								"patchline" : 								{
									"destination" : [ "obj-9", 0 ],
									"disabled" : 0,
									"hidden" : 0,
									"source" : [ "obj-52", 0 ]
								}

							}
, 							{
								"patchline" : 								{
									"destination" : [ "obj-58", 0 ],
									"disabled" : 0,
									"hidden" : 0,
									"source" : [ "obj-57", 0 ]
								}

							}
, 							{
								"patchline" : 								{
									"destination" : [ "obj-19", 0 ],
									"disabled" : 0,
									"hidden" : 0,
									"source" : [ "obj-58", 0 ]
								}

							}
, 							{
								"patchline" : 								{
									"destination" : [ "obj-73", 1 ],
									"disabled" : 0,
									"hidden" : 0,
									"source" : [ "obj-65", 0 ]
								}

							}
, 							{
								"patchline" : 								{
									"destination" : [ "obj-3", 0 ],
									"disabled" : 0,
									"hidden" : 0,
									"source" : [ "obj-71", 0 ]
								}

							}
, 							{
								"patchline" : 								{
									"destination" : [ "obj-73", 0 ],
									"disabled" : 0,
									"hidden" : 0,
									"source" : [ "obj-72", 0 ]
								}

							}
, 							{
								"patchline" : 								{
									"destination" : [ "obj-71", 0 ],
									"disabled" : 0,
									"hidden" : 0,
									"source" : [ "obj-73", 0 ]
								}

							}
, 							{
								"patchline" : 								{
									"destination" : [ "obj-20", 0 ],
									"disabled" : 0,
									"hidden" : 0,
									"source" : [ "obj-85", 0 ]
								}

							}
, 							{
								"patchline" : 								{
									"destination" : [ "obj-23", 0 ],
									"disabled" : 0,
									"hidden" : 0,
									"source" : [ "obj-88", 2 ]
								}

							}
, 							{
								"patchline" : 								{
									"destination" : [ "obj-25", 0 ],
									"disabled" : 0,
									"hidden" : 0,
									"source" : [ "obj-88", 2 ]
								}

							}
, 							{
								"patchline" : 								{
									"destination" : [ "obj-58", 1 ],
									"disabled" : 0,
									"hidden" : 0,
									"source" : [ "obj-88", 0 ]
								}

							}
, 							{
								"patchline" : 								{
									"destination" : [ "obj-85", 0 ],
									"disabled" : 0,
									"hidden" : 0,
									"source" : [ "obj-88", 1 ]
								}

							}
, 							{
								"patchline" : 								{
									"destination" : [ "obj-24", 0 ],
									"disabled" : 0,
									"hidden" : 0,
									"source" : [ "obj-9", 2 ]
								}

							}
, 							{
								"patchline" : 								{
									"destination" : [ "obj-26", 0 ],
									"disabled" : 0,
									"hidden" : 0,
									"source" : [ "obj-9", 2 ]
								}

							}
, 							{
								"patchline" : 								{
									"destination" : [ "obj-58", 1 ],
									"disabled" : 0,
									"hidden" : 0,
									"source" : [ "obj-9", 0 ]
								}

							}
, 							{
								"patchline" : 								{
									"destination" : [ "obj-65", 1 ],
									"disabled" : 0,
									"hidden" : 0,
									"source" : [ "obj-9", 1 ]
								}

							}
 ]
					}
,
					"patching_rect" : [ 248.0, 357.0, 82.0, 22.0 ],
					"saved_object_attributes" : 					{
						"description" : "",
						"digest" : "",
						"globalpatchername" : "",
						"style" : "",
						"tags" : ""
					}
,
					"style" : "",
					"text" : "p poke magic"
				}

			}
, 			{
				"box" : 				{
					"fontface" : 0,
					"fontname" : "Arial",
					"fontsize" : 12.0,
					"id" : "obj-47",
					"maxclass" : "number~",
					"mode" : 2,
					"numinlets" : 2,
					"numoutlets" : 2,
					"outlettype" : [ "signal", "float" ],
					"patching_rect" : [ 511.0, 439.0, 176.0, 22.0 ],
					"sig" : 0.0,
					"style" : ""
				}

			}
, 			{
				"box" : 				{
					"id" : "obj-36",
					"maxclass" : "newobj",
					"numinlets" : 2,
					"numoutlets" : 1,
					"outlettype" : [ "float" ],
					"patching_rect" : [ 732.0, 289.0, 29.5, 22.0 ],
					"style" : "",
					"text" : "* 1."
				}

			}
, 			{
				"box" : 				{
					"id" : "obj-33",
					"maxclass" : "newobj",
					"numinlets" : 1,
					"numoutlets" : 4,
					"outlettype" : [ "int", "int", "int", "int" ],
					"patching_rect" : [ 628.0, 210.0, 50.5, 22.0 ],
					"style" : "",
					"text" : "fftinfo~"
				}

			}
, 			{
				"box" : 				{
					"id" : "obj-76",
					"maxclass" : "toggle",
					"numinlets" : 1,
					"numoutlets" : 1,
					"outlettype" : [ "int" ],
					"parameter_enable" : 0,
					"patching_rect" : [ 175.0, 612.0, 24.0, 24.0 ],
					"style" : ""
				}

			}
, 			{
				"box" : 				{
					"id" : "obj-56",
					"maxclass" : "newobj",
					"numinlets" : 3,
					"numoutlets" : 1,
					"outlettype" : [ "jit_matrix" ],
					"patcher" : 					{
						"fileversion" : 1,
						"appversion" : 						{
							"major" : 7,
							"minor" : 3,
							"revision" : 1,
							"architecture" : "x86",
							"modernui" : 1
						}
,
						"rect" : [ 311.0, 106.0, 640.0, 480.0 ],
						"bglocked" : 0,
						"openinpresentation" : 0,
						"default_fontsize" : 12.0,
						"default_fontface" : 0,
						"default_fontname" : "Arial",
						"gridonopen" : 1,
						"gridsize" : [ 15.0, 15.0 ],
						"gridsnaponopen" : 1,
						"objectsnaponopen" : 1,
						"statusbarvisible" : 2,
						"toolbarvisible" : 1,
						"lefttoolbarpinned" : 0,
						"toptoolbarpinned" : 0,
						"righttoolbarpinned" : 0,
						"bottomtoolbarpinned" : 0,
						"toolbars_unpinned_last_save" : 0,
						"tallnewobj" : 0,
						"boxanimatetime" : 200,
						"enablehscroll" : 1,
						"enablevscroll" : 1,
						"devicewidth" : 0.0,
						"description" : "",
						"digest" : "",
						"tags" : "",
						"style" : "",
						"subpatcher_template" : "",
						"boxes" : [ 							{
								"box" : 								{
									"comment" : "",
									"id" : "obj-1",
									"maxclass" : "inlet",
									"numinlets" : 0,
									"numoutlets" : 1,
									"outlettype" : [ "int" ],
									"patching_rect" : [ 263.333344, 40.0, 30.0, 30.0 ],
									"style" : ""
								}

							}
, 							{
								"box" : 								{
									"id" : "obj-52",
									"linecount" : 2,
									"maxclass" : "comment",
									"numinlets" : 1,
									"numoutlets" : 0,
									"patching_rect" : [ 68.0, 421.0, 355.0, 33.0 ],
									"style" : "",
									"text" : "TODO change size only if necessary -- do not make smaller\n(unless explicitly called for -- but there's no such message yet .) )"
								}

							}
, 							{
								"box" : 								{
									"id" : "obj-46",
									"maxclass" : "newobj",
									"numinlets" : 1,
									"numoutlets" : 3,
									"outlettype" : [ "bang", "bang", "int" ],
									"patching_rect" : [ 191.333344, 126.0, 47.0, 22.0 ],
									"style" : "",
									"text" : "t b b i"
								}

							}
, 							{
								"box" : 								{
									"id" : "obj-42",
									"maxclass" : "newobj",
									"numinlets" : 2,
									"numoutlets" : 1,
									"outlettype" : [ "int" ],
									"patching_rect" : [ 145.0, 173.0, 29.5, 22.0 ],
									"style" : "",
									"text" : "i"
								}

							}
, 							{
								"box" : 								{
									"id" : "obj-30",
									"maxclass" : "newobj",
									"numinlets" : 1,
									"numoutlets" : 1,
									"outlettype" : [ "" ],
									"patching_rect" : [ 50.0, 276.0, 88.0, 22.0 ],
									"style" : "",
									"text" : "prepend name"
								}

							}
, 							{
								"box" : 								{
									"id" : "obj-13",
									"maxclass" : "newobj",
									"numinlets" : 2,
									"numoutlets" : 1,
									"outlettype" : [ "" ],
									"patching_rect" : [ 145.0, 250.0, 67.0, 22.0 ],
									"style" : "",
									"text" : "pack i i"
								}

							}
, 							{
								"box" : 								{
									"id" : "obj-12",
									"maxclass" : "newobj",
									"numinlets" : 2,
									"numoutlets" : 1,
									"outlettype" : [ "int" ],
									"patching_rect" : [ 193.0, 173.0, 30.0, 22.0 ],
									"style" : "",
									"text" : "i 32"
								}

							}
, 							{
								"box" : 								{
									"id" : "obj-5",
									"maxclass" : "newobj",
									"numinlets" : 1,
									"numoutlets" : 3,
									"outlettype" : [ "bang", "int", "bang" ],
									"patching_rect" : [ 145.0, 126.0, 40.0, 22.0 ],
									"style" : "",
									"text" : "t b i b"
								}

							}
, 							{
								"box" : 								{
									"id" : "obj-9",
									"maxclass" : "newobj",
									"numinlets" : 1,
									"numoutlets" : 4,
									"outlettype" : [ "int", "int", "int", "int" ],
									"patching_rect" : [ 112.833336, 100.0, 115.5, 22.0 ],
									"style" : "",
									"text" : "fftinfo~"
								}

							}
, 							{
								"box" : 								{
									"id" : "obj-84",
									"maxclass" : "message",
									"numinlets" : 2,
									"numoutlets" : 1,
									"outlettype" : [ "" ],
									"patching_rect" : [ 145.0, 276.0, 63.0, 22.0 ],
									"style" : "",
									"text" : "dim $1 $2"
								}

							}
, 							{
								"box" : 								{
									"id" : "obj-74",
									"maxclass" : "newobj",
									"numinlets" : 2,
									"numoutlets" : 1,
									"outlettype" : [ "bang" ],
									"patching_rect" : [ 263.333344, 276.0, 71.0, 22.0 ],
									"style" : "",
									"text" : "qmetro 100"
								}

							}
, 							{
								"box" : 								{
									"id" : "obj-23",
									"maxclass" : "newobj",
									"numinlets" : 1,
									"numoutlets" : 2,
									"outlettype" : [ "jit_matrix", "" ],
									"patching_rect" : [ 145.0, 347.0, 291.0, 22.0 ],
									"style" : "",
									"text" : "jit.matrix #0-spectral-frame_new 2 float32 2048 32"
								}

							}
, 							{
								"box" : 								{
									"comment" : "",
									"id" : "obj-53",
									"maxclass" : "inlet",
									"numinlets" : 0,
									"numoutlets" : 1,
									"outlettype" : [ "" ],
									"patching_rect" : [ 50.0, 40.0, 30.0, 30.0 ],
									"style" : ""
								}

							}
, 							{
								"box" : 								{
									"comment" : "",
									"id" : "obj-54",
									"maxclass" : "inlet",
									"numinlets" : 0,
									"numoutlets" : 1,
									"outlettype" : [ "" ],
									"patching_rect" : [ 191.333344, 40.0, 30.0, 30.0 ],
									"style" : ""
								}

							}
, 							{
								"box" : 								{
									"comment" : "",
									"id" : "obj-55",
									"maxclass" : "outlet",
									"numinlets" : 1,
									"numoutlets" : 0,
									"patching_rect" : [ 145.0, 384.0, 30.0, 30.0 ],
									"style" : ""
								}

							}
 ],
						"lines" : [ 							{
								"patchline" : 								{
									"destination" : [ "obj-74", 0 ],
									"disabled" : 0,
									"hidden" : 0,
									"source" : [ "obj-1", 0 ]
								}

							}
, 							{
								"patchline" : 								{
									"destination" : [ "obj-13", 1 ],
									"disabled" : 0,
									"hidden" : 0,
									"source" : [ "obj-12", 0 ]
								}

							}
, 							{
								"patchline" : 								{
									"destination" : [ "obj-84", 0 ],
									"disabled" : 0,
									"hidden" : 0,
									"source" : [ "obj-13", 0 ]
								}

							}
, 							{
								"patchline" : 								{
									"destination" : [ "obj-55", 0 ],
									"disabled" : 0,
									"hidden" : 0,
									"source" : [ "obj-23", 0 ]
								}

							}
, 							{
								"patchline" : 								{
									"destination" : [ "obj-23", 0 ],
									"disabled" : 0,
									"hidden" : 0,
									"source" : [ "obj-30", 0 ]
								}

							}
, 							{
								"patchline" : 								{
									"destination" : [ "obj-13", 0 ],
									"disabled" : 0,
									"hidden" : 0,
									"source" : [ "obj-42", 0 ]
								}

							}
, 							{
								"patchline" : 								{
									"destination" : [ "obj-12", 1 ],
									"disabled" : 0,
									"hidden" : 0,
									"source" : [ "obj-46", 2 ]
								}

							}
, 							{
								"patchline" : 								{
									"destination" : [ "obj-12", 0 ],
									"disabled" : 0,
									"hidden" : 0,
									"source" : [ "obj-46", 1 ]
								}

							}
, 							{
								"patchline" : 								{
									"destination" : [ "obj-42", 0 ],
									"disabled" : 0,
									"hidden" : 0,
									"source" : [ "obj-46", 0 ]
								}

							}
, 							{
								"patchline" : 								{
									"destination" : [ "obj-12", 0 ],
									"disabled" : 0,
									"hidden" : 0,
									"source" : [ "obj-5", 2 ]
								}

							}
, 							{
								"patchline" : 								{
									"destination" : [ "obj-42", 1 ],
									"disabled" : 0,
									"hidden" : 0,
									"source" : [ "obj-5", 1 ]
								}

							}
, 							{
								"patchline" : 								{
									"destination" : [ "obj-42", 0 ],
									"disabled" : 0,
									"hidden" : 0,
									"source" : [ "obj-5", 0 ]
								}

							}
, 							{
								"patchline" : 								{
									"destination" : [ "obj-30", 0 ],
									"disabled" : 0,
									"hidden" : 0,
									"source" : [ "obj-53", 0 ]
								}

							}
, 							{
								"patchline" : 								{
									"destination" : [ "obj-46", 0 ],
									"disabled" : 0,
									"hidden" : 0,
									"source" : [ "obj-54", 0 ]
								}

							}
, 							{
								"patchline" : 								{
									"destination" : [ "obj-23", 0 ],
									"disabled" : 0,
									"hidden" : 0,
									"source" : [ "obj-74", 0 ]
								}

							}
, 							{
								"patchline" : 								{
									"destination" : [ "obj-23", 0 ],
									"disabled" : 0,
									"hidden" : 0,
									"source" : [ "obj-84", 0 ]
								}

							}
, 							{
								"patchline" : 								{
									"destination" : [ "obj-5", 0 ],
									"disabled" : 0,
									"hidden" : 0,
									"source" : [ "obj-9", 1 ]
								}

							}
 ]
					}
,
					"patching_rect" : [ 28.0, 638.0, 166.0, 22.0 ],
					"saved_object_attributes" : 					{
						"description" : "",
						"digest" : "",
						"globalpatchername" : "",
						"style" : "",
						"tags" : ""
					}
,
					"style" : "",
					"text" : "p matrix"
				}

			}
, 			{
				"box" : 				{
					"id" : "obj-34",
					"maxclass" : "newobj",
					"numinlets" : 1,
					"numoutlets" : 1,
					"outlettype" : [ "" ],
					"patching_rect" : [ 66.0, 348.0, 127.0, 22.0 ],
					"style" : "",
					"text" : "prepend matrix_name"
				}

			}
, 			{
				"box" : 				{
					"id" : "obj-18",
					"maxclass" : "newobj",
					"numinlets" : 0,
					"numoutlets" : 1,
					"outlettype" : [ "" ],
					"patching_rect" : [ 28.0, 612.0, 145.0, 22.0 ],
					"style" : "",
					"text" : "r #0-set-matrix-name"
				}

			}
, 			{
				"box" : 				{
					"id" : "obj-17",
					"maxclass" : "newobj",
					"numinlets" : 0,
					"numoutlets" : 1,
					"outlettype" : [ "" ],
					"patching_rect" : [ 66.0, 321.0, 135.0, 22.0 ],
					"style" : "",
					"text" : "r #0-set-matrix-name"
				}

			}
, 			{
				"box" : 				{
					"id" : "obj-16",
					"maxclass" : "newobj",
					"numinlets" : 1,
					"numoutlets" : 0,
					"patching_rect" : [ 557.0, 92.0, 137.0, 22.0 ],
					"style" : "",
					"text" : "s #0-set-matrix-name"
				}

			}
, 			{
				"box" : 				{
					"id" : "obj-11",
					"maxclass" : "newobj",
					"numinlets" : 0,
					"numoutlets" : 1,
					"outlettype" : [ "" ],
					"patching_rect" : [ 101.5, 585.5, 127.0, 22.0 ],
					"style" : "",
					"text" : "r #0-set-matrix-size"
				}

			}
, 			{
				"box" : 				{
					"id" : "obj-7",
					"maxclass" : "newobj",
					"numinlets" : 1,
					"numoutlets" : 0,
					"patching_rect" : [ 461.0, 119.0, 129.0, 22.0 ],
					"style" : "",
					"text" : "s #0-set-matrix-size"
				}

			}
, 			{
				"box" : 				{
					"id" : "obj-14",
					"maxclass" : "comment",
					"numinlets" : 1,
					"numoutlets" : 0,
					"patching_rect" : [ 365.0, 5.0, 52.0, 20.0 ],
					"style" : "",
					"text" : "msgs in"
				}

			}
, 			{
				"box" : 				{
					"id" : "obj-45",
					"maxclass" : "newobj",
					"numinlets" : 7,
					"numoutlets" : 7,
					"outlettype" : [ "", "", "", "", "", "", "" ],
					"patching_rect" : [ 365.0, 64.0, 576.0, 22.0 ],
					"style" : "",
					"text" : "route freeze set-matrix-size matrix_name pvoc-record bin-shift-abs bin-shift-rel"
				}

			}
, 			{
				"box" : 				{
					"id" : "obj-15",
					"maxclass" : "newobj",
					"numinlets" : 3,
					"numoutlets" : 1,
					"outlettype" : [ "" ],
					"patching_rect" : [ 228.0, 509.0, 188.0, 22.0 ],
					"style" : "",
					"text" : "jit.poke~ #0-spectrum 2 1"
				}

			}
, 			{
				"box" : 				{
					"id" : "obj-8",
					"maxclass" : "comment",
					"numinlets" : 1,
					"numoutlets" : 0,
					"patching_rect" : [ 297.0, 5.0, 66.0, 20.0 ],
					"style" : "",
					"text" : "fft bin num"
				}

			}
, 			{
				"box" : 				{
					"id" : "obj-6",
					"maxclass" : "comment",
					"numinlets" : 1,
					"numoutlets" : 0,
					"patching_rect" : [ 215.0, 6.0, 56.0, 20.0 ],
					"style" : "",
					"text" : "fft phase"
				}

			}
, 			{
				"box" : 				{
					"id" : "obj-4",
					"maxclass" : "comment",
					"numinlets" : 1,
					"numoutlets" : 0,
					"patching_rect" : [ 18.5, 5.0, 47.0, 20.0 ],
					"style" : "",
					"text" : "fft amp"
				}

			}
, 			{
				"box" : 				{
					"comment" : "",
					"id" : "obj-2",
					"maxclass" : "inlet",
					"numinlets" : 0,
					"numoutlets" : 1,
					"outlettype" : [ "signal" ],
					"patching_rect" : [ 318.0, 28.0, 30.0, 30.0 ],
					"style" : ""
				}

			}
, 			{
				"box" : 				{
					"id" : "obj-10",
					"maxclass" : "newobj",
					"numinlets" : 3,
					"numoutlets" : 1,
					"outlettype" : [ "" ],
					"patching_rect" : [ 23.0, 509.0, 159.0, 22.0 ],
					"style" : "",
					"text" : "jit.poke~ #0-spectrum 2 0"
				}

			}
, 			{
				"box" : 				{
					"id" : "obj-35",
					"maxclass" : "jit.pwindow",
					"numinlets" : 1,
					"numoutlets" : 2,
					"outlettype" : [ "", "" ],
					"patching_rect" : [ 28.0, 667.0, 760.0, 100.0 ],
					"presentation_rect" : [ 0.0, 0.0, 100.0, 100.0 ]
				}

			}
, 			{
				"box" : 				{
					"comment" : "",
					"id" : "obj-1",
					"maxclass" : "inlet",
					"numinlets" : 0,
					"numoutlets" : 1,
					"outlettype" : [ "" ],
					"patching_rect" : [ 365.0, 27.0, 30.0, 30.0 ],
					"style" : ""
				}

			}
, 			{
				"box" : 				{
					"comment" : "",
					"id" : "obj-38",
					"maxclass" : "inlet",
					"numinlets" : 0,
					"numoutlets" : 1,
					"outlettype" : [ "signal" ],
					"patching_rect" : [ 23.0, 28.0, 30.0, 30.0 ],
					"style" : ""
				}

			}
, 			{
				"box" : 				{
					"comment" : "",
					"id" : "obj-40",
					"maxclass" : "inlet",
					"numinlets" : 0,
					"numoutlets" : 1,
					"outlettype" : [ "signal" ],
					"patching_rect" : [ 228.0, 27.0, 30.0, 30.0 ],
					"style" : ""
				}

			}
 ],
		"lines" : [ 			{
				"patchline" : 				{
					"destination" : [ "obj-45", 0 ],
					"disabled" : 0,
					"hidden" : 0,
					"source" : [ "obj-1", 0 ]
				}

			}
, 			{
				"patchline" : 				{
					"destination" : [ "obj-56", 1 ],
					"disabled" : 0,
					"hidden" : 0,
					"source" : [ "obj-11", 0 ]
				}

			}
, 			{
				"patchline" : 				{
					"destination" : [ "obj-34", 0 ],
					"disabled" : 0,
					"hidden" : 0,
					"source" : [ "obj-17", 0 ]
				}

			}
, 			{
				"patchline" : 				{
					"destination" : [ "obj-56", 0 ],
					"disabled" : 0,
					"hidden" : 0,
					"source" : [ "obj-18", 0 ]
				}

			}
, 			{
				"patchline" : 				{
					"destination" : [ "obj-55", 0 ],
					"disabled" : 0,
					"hidden" : 0,
					"source" : [ "obj-2", 0 ]
				}

			}
, 			{
				"patchline" : 				{
					"destination" : [ "obj-55", 3 ],
					"disabled" : 0,
					"hidden" : 0,
					"source" : [ "obj-3", 0 ]
				}

			}
, 			{
				"patchline" : 				{
					"destination" : [ "obj-36", 1 ],
					"disabled" : 0,
					"hidden" : 0,
					"source" : [ "obj-33", 1 ]
				}

			}
, 			{
				"patchline" : 				{
					"destination" : [ "obj-55", 1 ],
					"disabled" : 0,
					"hidden" : 0,
					"source" : [ "obj-33", 1 ]
				}

			}
, 			{
				"patchline" : 				{
					"destination" : [ "obj-10", 0 ],
					"disabled" : 0,
					"hidden" : 0,
					"source" : [ "obj-34", 0 ]
				}

			}
, 			{
				"patchline" : 				{
					"destination" : [ "obj-15", 0 ],
					"disabled" : 0,
					"hidden" : 0,
					"source" : [ "obj-34", 0 ]
				}

			}
, 			{
				"patchline" : 				{
					"destination" : [ "obj-5", 0 ],
					"disabled" : 0,
					"hidden" : 0,
					"source" : [ "obj-36", 0 ]
				}

			}
, 			{
				"patchline" : 				{
					"destination" : [ "obj-10", 0 ],
					"disabled" : 0,
					"hidden" : 0,
					"source" : [ "obj-38", 0 ]
				}

			}
, 			{
				"patchline" : 				{
					"destination" : [ "obj-15", 0 ],
					"disabled" : 0,
					"hidden" : 0,
					"source" : [ "obj-40", 0 ]
				}

			}
, 			{
				"patchline" : 				{
					"destination" : [ "obj-16", 0 ],
					"disabled" : 0,
					"hidden" : 0,
					"source" : [ "obj-45", 2 ]
				}

			}
, 			{
				"patchline" : 				{
					"destination" : [ "obj-3", 0 ],
					"disabled" : 0,
					"hidden" : 0,
					"source" : [ "obj-45", 4 ]
				}

			}
, 			{
				"patchline" : 				{
					"destination" : [ "obj-36", 0 ],
					"disabled" : 0,
					"hidden" : 0,
					"source" : [ "obj-45", 5 ]
				}

			}
, 			{
				"patchline" : 				{
					"destination" : [ "obj-55", 4 ],
					"disabled" : 0,
					"hidden" : 0,
					"source" : [ "obj-45", 3 ]
				}

			}
, 			{
				"patchline" : 				{
					"destination" : [ "obj-55", 2 ],
					"disabled" : 0,
					"hidden" : 0,
					"source" : [ "obj-45", 0 ]
				}

			}
, 			{
				"patchline" : 				{
					"destination" : [ "obj-7", 0 ],
					"disabled" : 0,
					"hidden" : 0,
					"source" : [ "obj-45", 1 ]
				}

			}
, 			{
				"patchline" : 				{
					"destination" : [ "obj-3", 1 ],
					"disabled" : 0,
					"hidden" : 0,
					"source" : [ "obj-5", 1 ]
				}

			}
, 			{
				"patchline" : 				{
					"destination" : [ "obj-3", 0 ],
					"disabled" : 0,
					"hidden" : 0,
					"source" : [ "obj-5", 0 ]
				}

			}
, 			{
				"patchline" : 				{
					"destination" : [ "obj-10", 2 ],
					"disabled" : 0,
					"hidden" : 0,
					"source" : [ "obj-55", 1 ]
				}

			}
, 			{
				"patchline" : 				{
					"destination" : [ "obj-10", 1 ],
					"disabled" : 0,
					"hidden" : 0,
					"source" : [ "obj-55", 0 ]
				}

			}
, 			{
				"patchline" : 				{
					"destination" : [ "obj-15", 2 ],
					"disabled" : 0,
					"hidden" : 0,
					"source" : [ "obj-55", 1 ]
				}

			}
, 			{
				"patchline" : 				{
					"destination" : [ "obj-15", 1 ],
					"disabled" : 0,
					"hidden" : 0,
					"source" : [ "obj-55", 0 ]
				}

			}
, 			{
				"patchline" : 				{
					"destination" : [ "obj-47", 0 ],
					"disabled" : 0,
					"hidden" : 0,
					"source" : [ "obj-55", 0 ]
				}

			}
, 			{
				"patchline" : 				{
					"destination" : [ "obj-35", 0 ],
					"disabled" : 0,
					"hidden" : 0,
					"source" : [ "obj-56", 0 ]
				}

			}
, 			{
				"patchline" : 				{
					"destination" : [ "obj-56", 2 ],
					"disabled" : 0,
					"hidden" : 0,
					"source" : [ "obj-76", 0 ]
				}

			}
 ]
	}

}
